<?xml version="1.0" standalone="no"?>
<!DOCTYPE svg PUBLIC "-//W3C//DTD SVG 20010904//EN"
 "http://www.w3.org/TR/2001/REC-SVG-20010904/DTD/svg10.dtd">
<svg version="1.0" xmlns="http://www.w3.org/2000/svg"
 width="1509.000000pt" height="1509.000000pt" viewBox="0 0 1509.000000 1509.000000"
 preserveAspectRatio="xMidYMid meet">
<metadata>
Created by potrace 1.14, written by Peter Selinger 2001-2017
</metadata>
<g transform="translate(0.000000,1509.000000) scale(0.100000,-0.100000)"
fill="#000000" stroke="none">
<path d="M14900 11722 c-146 -11 -419 -70 -564 -121 -177 -63 -376 -154 -376
-173 0 -6 -3 -8 -7 -5 -9 10 -209 -112 -263 -159 -8 -8 -51 -43 -95 -79 -44
-36 -79 -70 -78 -75 2 -6 -1 -9 -6 -7 -10 2 -99 -87 -156 -158 -22 -28 -43
-52 -46 -55 -34 -31 -210 -340 -193 -340 4 0 1 -6 -5 -14 -31 -37 -95 -282
-106 -406 -5 -54 -10 -6594 -6 -6652 1 -5 60 -8 131 -8 72 0 130 3 131 8 0 4
1 579 3 1277 2 699 5 1281 9 1295 3 14 8 56 12 95 4 38 9 73 11 76 2 4 6 27 9
50 22 174 141 496 234 635 17 25 31 47 31 50 0 12 120 154 185 220 242 244
574 411 1008 508 87 20 296 56 321 56 2 0 4 898 4 1996 l0 1995 -77 -3 c-42
-2 -92 -4 -111 -6z"/>
<path d="M6085 11695 c-149 -20 -161 -22 -274 -51 -190 -47 -373 -119 -566
-222 -59 -31 -230 -139 -257 -161 -7 -6 -51 -41 -98 -78 -127 -100 -220 -188
-350 -329 -64 -68 -198 -237 -245 -309 -22 -33 -43 -62 -46 -65 -5 -5 -123
-190 -186 -293 -17 -29 -36 -56 -40 -62 -5 -5 -42 -64 -83 -130 -41 -66 -78
-124 -83 -130 -4 -5 -89 -138 -189 -295 -99 -157 -204 -321 -232 -365 -53 -82
-139 -217 -166 -260 -8 -13 -45 -71 -82 -129 -38 -58 -68 -110 -68 -115 0 -5
-3 -11 -7 -13 -10 -4 -67 -92 -64 -97 2 -2 -1 -7 -7 -10 -7 -5 -196 -294 -227
-348 -6 -10 -18 -29 -26 -43 -179 -276 -362 -568 -362 -577 0 -7 -3 -10 -7 -8
-3 2 -15 -13 -26 -33 -10 -20 -25 -43 -32 -50 -6 -8 -17 -22 -23 -33 -7 -13
-10 -602 -10 -1847 0 -1005 1 -1838 1 -1852 0 -24 1 -23 22 10 12 19 25 37 28
40 3 3 21 30 40 60 19 30 37 57 41 60 3 3 18 25 33 50 15 25 38 61 52 80 30
43 -18 -28 379 565 184 275 339 507 345 515 5 8 47 69 91 135 45 66 82 126 82
133 0 6 4 12 8 12 8 0 79 102 79 113 0 3 11 18 25 33 13 14 22 30 19 35 -3 5
-1 9 4 9 10 0 82 104 82 119 0 5 4 11 8 13 5 2 58 77 118 168 60 91 111 167
115 170 3 3 20 29 37 58 18 30 42 63 52 75 11 11 20 26 20 33 0 7 4 14 9 16 5
2 11 10 13 18 2 8 8 19 14 25 20 18 147 210 147 222 0 7 3 10 7 8 7 -5 46 56
42 68 -1 4 2 7 6 7 5 0 42 51 83 113 40 61 77 114 80 117 4 3 24 28 44 55 21
28 58 70 82 95 23 25 43 51 43 57 0 7 3 12 8 11 4 -2 30 20 57 47 129 129 367
302 525 381 41 20 78 42 82 48 4 6 8 8 8 4 0 -4 26 5 58 19 31 13 71 31 87 38
92 40 318 101 465 126 187 31 567 34 715 5 11 -2 40 -7 65 -11 91 -14 288 -69
396 -110 244 -94 459 -220 653 -383 66 -55 214 -201 261 -257 69 -82 110 -135
140 -180 19 -27 42 -59 52 -69 10 -11 18 -23 18 -27 0 -5 22 -43 50 -86 27
-43 50 -83 50 -90 0 -6 5 -15 10 -18 7 -4 10 629 10 1922 -1 2139 3 2007 -67
2173 -20 47 -40 87 -45 88 -4 2 -8 8 -8 13 0 14 -58 98 -110 159 -75 89 -290
300 -290 285 0 -2 -12 8 -27 23 -106 107 -421 294 -633 375 -95 36 -270 88
-345 103 -22 4 -42 8 -45 9 -3 0 -32 5 -65 9 -32 4 -68 10 -80 13 -50 12 -396
10 -490 -2z"/>
<path d="M10568 11665 c-2 -2 -50 -5 -108 -8 -58 -4 -114 -8 -125 -10 -11 -3
-47 -8 -80 -12 -93 -10 -288 -53 -411 -91 -639 -193 -1074 -589 -1204 -1094
-44 -172 -43 -131 -44 -2057 -1 -1014 2 -1843 6 -1843 6 0 34 47 106 175 9 16
22 34 28 40 6 5 21 26 34 45 52 77 158 200 255 295 106 104 120 117 195 175
25 19 47 37 50 40 3 3 22 16 43 29 21 13 43 28 50 35 36 35 279 164 422 224
372 156 845 207 1259 136 113 -19 295 -66 366 -94 30 -12 56 -21 58 -20 1 0
23 -8 48 -19 25 -11 53 -22 62 -23 9 -2 22 -6 27 -10 6 -4 55 -31 110 -59 351
-180 653 -450 874 -784 37 -55 78 -121 91 -147 14 -27 27 -48 30 -48 7 0 4
3667 -3 3710 -3 19 -9 58 -12 85 -21 149 -89 340 -173 480 -85 142 -262 336
-382 418 -25 17 -47 34 -50 37 -13 17 -193 119 -201 114 -5 -3 -9 -1 -9 4 0 5
-39 27 -87 49 -255 117 -527 186 -860 219 -60 6 -360 13 -365 9z"/>
<path d="M2 9434 l0 -1909 23 -40 c12 -22 66 -121 120 -220 55 -99 103 -181
107 -183 4 -2 8 -12 8 -23 0 -10 5 -19 10 -19 6 0 10 -4 10 -10 0 -5 42 -85
94 -177 94 -169 140 -254 180 -328 11 -22 28 -45 36 -52 8 -7 11 -13 6 -13 -4
0 -2 -10 6 -22 8 -13 28 -48 45 -78 17 -30 92 -167 168 -305 76 -137 143 -259
149 -270 6 -11 17 -28 25 -37 8 -10 11 -18 7 -18 -4 0 1 -12 12 -27 11 -16 32
-52 47 -80 15 -29 31 -53 37 -53 5 0 7 -4 4 -9 -3 -4 40 -89 95 -187 56 -99
111 -198 122 -221 12 -24 25 -43 29 -43 4 0 8 -5 8 -12 0 -6 26 -59 59 -117
32 -58 73 -133 91 -166 115 -208 209 -378 220 -395 6 -8 13 -22 17 -30 4 -8
22 -42 41 -75 19 -33 51 -91 72 -130 21 -38 70 -128 110 -200 40 -71 81 -147
92 -167 10 -21 22 -38 26 -38 4 0 6 856 6 1903 l-1 1902 -23 43 c-12 23 -26
42 -32 42 -5 0 -6 5 -3 11 4 5 1 18 -7 27 -13 17 -21 31 -70 122 -14 25 -48
88 -78 140 -29 52 -76 138 -105 190 -29 52 -63 115 -77 140 -14 25 -40 72 -58
105 -67 122 -84 152 -125 225 -23 41 -56 100 -72 130 -16 30 -42 78 -58 105
-65 116 -185 333 -207 375 -105 195 -172 310 -181 310 -6 0 -8 3 -4 6 6 6 -74
164 -98 194 -7 8 -27 46 -46 83 -19 38 -42 77 -51 87 -9 10 -14 20 -11 23 3 3
-4 18 -14 34 -11 15 -37 60 -58 98 -63 116 -94 172 -190 345 -51 91 -107 192
-125 225 -18 33 -43 78 -55 101 -13 22 -27 49 -33 60 -27 49 -86 150 -91 154
-3 3 -7 12 -9 20 -2 8 -28 58 -57 110 -29 52 -63 113 -75 135 -12 22 -32 57
-45 79 l-23 38 0 -1908z"/>
<path d="M6069 7536 c-2 -2 -33 -7 -69 -10 -52 -6 -229 -38 -275 -50 -126 -33
-355 -120 -367 -139 -4 -7 -8 -8 -8 -4 0 10 -148 -69 -230 -122 -442 -288
-757 -720 -889 -1221 -33 -127 -47 -202 -57 -300 -3 -36 -7 -75 -9 -87 -4 -23
-2 -23 93 -23 132 -1 3931 -1 4010 0 l63 0 -5 38 c-3 20 -8 64 -12 97 -16 140
-43 261 -95 416 -64 192 -263 559 -302 559 -6 0 -7 3 -4 7 20 19 -240 291
-383 401 -30 23 -59 46 -65 50 -45 36 -181 117 -280 168 -220 112 -444 179
-710 213 -67 8 -398 14 -406 7z"/>
<path d="M10450 7533 c-34 -4 -234 -38 -275 -47 -124 -29 -284 -85 -415 -148
-134 -64 -291 -159 -283 -171 3 -6 2 -7 -4 -4 -16 10 -183 -123 -288 -229
-173 -176 -284 -329 -390 -539 -114 -224 -175 -425 -210 -690 -7 -55 -12 -106
-11 -113 2 -11 317 -14 1962 -13 1077 0 2014 0 2080 1 l122 0 -5 53 c-9 111
-46 307 -80 417 -132 440 -392 809 -760 1082 -282 209 -589 334 -968 393 -45
7 -422 13 -475 8z"/>
<path d="M4181 5328 c-19 -7 -20 -23 -1 -157 42 -309 165 -629 339 -884 39
-56 81 -114 93 -129 13 -14 37 -43 55 -65 48 -58 122 -132 188 -191 33 -29 67
-58 75 -66 85 -76 303 -211 447 -277 160 -74 400 -146 548 -164 28 -4 79 -10
115 -15 99 -12 356 -9 467 6 243 34 442 94 659 200 135 65 320 182 382 241 19
18 36 33 38 33 21 0 280 268 308 318 5 10 16 23 23 31 27 27 92 129 86 135 -4
3 -1 6 5 6 31 0 215 403 247 540 2 8 13 55 24 104 12 49 23 103 25 120 28 218
27 216 8 217 -112 4 -4118 2 -4131 -3z"/>
<path d="M8587 5332 c-17 -3 -17 -15 3 -167 21 -154 77 -371 125 -480 78 -176
185 -375 206 -383 5 -2 9 -10 9 -17 0 -8 7 -18 16 -23 9 -5 15 -12 14 -16 -6
-20 203 -256 315 -355 287 -255 693 -445 1060 -497 28 -3 59 -9 70 -11 41 -10
402 -11 470 -2 149 19 150 19 215 34 3 1 21 5 40 9 143 31 322 98 478 177 107
55 294 176 364 236 137 118 223 206 318 323 40 50 130 179 130 187 0 3 9 16
20 30 11 14 17 29 14 34 -3 5 0 9 6 9 14 0 120 222 160 335 32 92 75 250 86
319 3 21 7 47 9 58 3 11 7 46 10 77 3 31 8 71 10 89 4 25 1 32 -13 33 -60 2
-4122 3 -4135 1z"/>
</g>
</svg>
